<svg width="24" height="24" viewBox="0 0 24 24" fill="none" xmlns="http://www.w3.org/2000/svg">
<path d="M20 12.5V6.8C20 5.11984 20 4.27976 19.673 3.63803C19.3854 3.07354 18.9265 2.6146 18.362 2.32698C17.7202 2 16.8802 2 15.2 2H8.8C7.11984 2 6.27976 2 5.63803 2.32698C5.07354 2.6146 4.6146 3.07354 4.32698 3.63803C4 4.27976 4 5.11984 4 6.8V17.2C4 18.8802 4 19.7202 4.32698 20.362C4.6146 20.9265 5.07354 21.3854 5.63803 21.673C6.27976 22 7.1198 22 8.79986 22H12.5M15 19L18 22M18 22L21 19M18 22V16" stroke="#202225" stroke-width="2" stroke-linecap="round" stroke-linejoin="round"/>
<path fill-rule="evenodd" clip-rule="evenodd" d="M7 6.47059C7 6.21068 7.22385 6 7.5 6H16.5C16.7761 6 17 6.21068 17 6.47059V13.5294C17 13.7893 16.7761 14 16.5 14H7.5C7.22385 14 7 13.7893 7 13.5294V6.47059ZM8 9.29412V10.7059H10V9.29412H8ZM8 13.0588V11.6471H10V13.0588H8ZM11 13.0588V11.6471H13V13.0588H11ZM14 13.0588V11.6471H16V13.0588H14ZM14 9.29412V10.7059H16V9.29412H14ZM11 10.7059H13V9.29412H11V10.7059ZM8 8.35294H16V6.94118H8V8.35294Z" fill="#202225"/>
</svg>
