<svg width="24" height="24" viewBox="0 0 24 24" fill="none" xmlns="http://www.w3.org/2000/svg">
<path d="M14.0527 10.0062C13.9348 11.2992 13.3684 12.5166 12.4428 13.4421C11.7777 14.1072 10.9619 14.5869 10.0757 14.8479V16C10.0757 16.6664 9.66181 17.236 9.07727 17.4661C9.12524 18.8322 10.2478 19.925 11.6257 19.925C13.034 19.925 14.1757 18.7833 14.1757 17.375V15.375C14.1757 13.7458 15.4964 12.425 17.1257 12.425C18.7549 12.425 20.0757 13.7458 20.0757 15.375V16.5333C20.661 16.7629 21.0757 17.333 21.0757 18C21.0757 18.8699 20.3705 19.575 19.5007 19.575C18.6308 19.575 17.9257 18.8699 17.9257 18C17.9257 17.333 18.3403 16.7629 18.9257 16.5333V15.375C18.9257 14.3809 18.1198 13.575 17.1257 13.575C16.1315 13.575 15.3257 14.3809 15.3257 15.375V17.375C15.3257 19.4185 13.6691 21.075 11.6257 21.075C9.61305 21.075 7.97571 19.468 7.92679 17.4671C7.34083 17.2378 6.92567 16.6675 6.92567 16V14.8479C6.03943 14.5869 5.22365 14.1072 4.55857 13.4421C3.63302 12.5166 3.06652 11.2992 2.94869 10.0062C2.92159 9.70868 3.14429 9.46685 3.42567 9.42989V5C3.42567 4.13015 4.13082 3.425 5.00067 3.425H5.09224C5.28274 3.12462 5.61834 2.925 6.00067 2.925C6.59439 2.925 7.07567 3.40629 7.07567 4C7.07567 4.59371 6.59439 5.075 6.00067 5.075C5.61834 5.075 5.28274 4.87538 5.09224 4.575H5.00067C4.76595 4.575 4.57567 4.76528 4.57567 5V9.425H5.08077C5.40083 9.425 5.64542 9.68461 5.69732 9.98482M14.0527 10.0062C14.0527 10.0062 14.0527 10.0062 14.0527 10.0062L13.978 9.99935L14.0527 10.0062ZM14.0527 10.0062C14.0798 9.70866 13.8571 9.46685 13.5757 9.42989M13.5757 9.42989V5C13.5757 4.13015 12.8705 3.425 12.0007 3.425H11.9091M13.5757 9.42989C13.5511 9.42667 13.526 9.425 13.5007 9.425V5C13.5007 4.17158 12.8291 3.5 12.0007 3.5H11.8669M13.5757 9.42989V9.5H13.5007H12.4257M11.9091 3.425C11.7186 3.12462 11.383 2.925 11.0007 2.925C10.4069 2.925 9.92567 3.40629 9.92567 4C9.92567 4.59371 10.4069 5.075 11.0007 5.075C11.383 5.075 11.7186 4.87538 11.9091 4.575M11.9091 3.425C11.9169 3.43731 11.9245 3.4498 11.9318 3.46245L11.8669 3.5M11.9091 3.425H11.8669V3.5M11.9091 4.575H12.0007C12.2354 4.575 12.4257 4.76528 12.4257 5V9.425M11.9091 4.575H11.8669V4.5M11.9091 4.575C11.9169 4.56269 11.9245 4.5502 11.9318 4.53755L11.8669 4.5M12.4257 9.425H11.9206C11.6005 9.425 11.3559 9.68461 11.304 9.98482C11.2046 10.5594 10.9302 11.0938 10.5123 11.5117L10.5654 11.5647M12.4257 9.425V9.5M12.4257 9.425H12.5007V5C12.5007 4.72386 12.2768 4.5 12.0007 4.5H11.8669M10.5654 11.5647L10.5123 11.5117C9.97885 12.0452 9.25523 12.3449 8.50067 12.3449C7.74616 12.3449 7.02254 12.0452 6.489 11.5117C6.07117 11.0938 5.7967 10.5594 5.69732 9.98482M10.5654 11.5647C10.9943 11.1358 11.2759 10.5873 11.3779 9.9976C11.425 9.72545 11.6445 9.5 11.9206 9.5H12.4257M10.5654 11.5647L12.4257 9.5M5.69732 9.98482C5.69732 9.98482 5.69732 9.98482 5.69732 9.98482L5.62342 9.9976L5.69732 9.98482ZM11.8669 4.5C11.694 4.7989 11.3708 5 11.0007 5C10.4484 5 10.0007 4.55229 10.0007 4C10.0007 3.44771 10.4484 3 11.0007 3C11.3708 3 11.694 3.2011 11.8669 3.5M4.57567 9.5H4.50067H4.57567ZM11.3256 12.3248C11.8155 11.8349 12.165 11.2307 12.3483 10.575H12.7931C12.6 11.3459 12.201 12.0576 11.6296 12.629C10.7998 13.4588 9.67428 13.925 8.50067 13.925C7.32711 13.925 6.20159 13.4588 5.37175 12.629C4.80034 12.0576 4.40133 11.3459 4.20823 10.575H4.65309C4.83632 11.2307 5.18586 11.8349 5.67584 12.3248C6.42505 13.074 7.44118 13.4949 8.50067 13.4949C9.56021 13.4949 10.5763 13.074 11.3256 12.3248ZM19.5007 17.575C19.7354 17.575 19.9257 17.7653 19.9257 18C19.9257 18.2347 19.7354 18.425 19.5007 18.425C19.2659 18.425 19.0757 18.2347 19.0757 18C19.0757 17.7653 19.2659 17.575 19.5007 17.575ZM8.92567 15.075V16C8.92567 16.2347 8.7354 16.425 8.50067 16.425C8.26594 16.425 8.07567 16.2347 8.07567 16V15.075H8.92567Z" fill="black" stroke="black" stroke-width="0.15"/>
</svg>
