<svg width="24" height="24" viewBox="0 0 24 24" fill="none" xmlns="http://www.w3.org/2000/svg">
<path fill-rule="evenodd" clip-rule="evenodd" d="M8.8 1H8.7587H8.75868C7.95372 0.999988 7.28937 0.999978 6.74818 1.04419C6.18608 1.09012 5.66937 1.18868 5.18404 1.43598C4.43139 1.81947 3.81947 2.43139 3.43598 3.18404C3.18868 3.66937 3.09012 4.18608 3.04419 4.74818C2.99998 5.28937 2.99999 5.95372 3 6.75868V6.7587V6.8V17.2V17.2413V17.2413C2.99999 18.0463 2.99998 18.7106 3.04419 19.2518C3.09012 19.8139 3.18868 20.3306 3.43598 20.816C3.81947 21.5686 4.43139 22.1805 5.18404 22.564C5.66937 22.8113 6.18608 22.9099 6.74818 22.9558C7.28937 23 7.95372 23 8.75868 23H8.8H15.2H15.2413C16.0463 23 16.7106 23 17.2518 22.9558C17.8139 22.9099 18.3306 22.8113 18.816 22.564C19.5686 22.1805 20.1805 21.5686 20.564 20.816C20.8113 20.3306 20.9099 19.8139 20.9558 19.2518C21 18.7106 21 18.0463 21 17.2413V17.2V8C21 7.73479 20.8946 7.48043 20.7071 7.29289L14.7071 1.29289C14.5196 1.10536 14.2652 1 14 1H8.8ZM6.09202 3.21799C6.24842 3.1383 6.47262 3.07337 6.91104 3.03755C7.36113 3.00078 7.94342 3 8.8 3H13V6.40007L13 6.43196C13 6.68434 12.9999 6.93014 13.0169 7.1383C13.0356 7.3669 13.0797 7.63663 13.218 7.90805C13.4097 8.28438 13.7157 8.59034 14.092 8.78209C14.3634 8.92038 14.6332 8.96445 14.8618 8.98313C15.0699 9.00013 15.3157 9.0001 15.5681 9.00007L15.6 9.00007H19V17.2C19 18.0566 18.9992 18.6389 18.9624 19.089C18.9266 19.5274 18.8617 19.7516 18.782 19.908C18.5903 20.2843 18.2843 20.5903 17.908 20.782C17.7516 20.8617 17.5274 20.9266 17.089 20.9624C16.6389 20.9992 16.0566 21 15.2 21H8.8C7.94342 21 7.36113 20.9992 6.91104 20.9624C6.47262 20.9266 6.24842 20.8617 6.09202 20.782C5.7157 20.5903 5.40974 20.2843 5.21799 19.908C5.1383 19.7516 5.07337 19.5274 5.03755 19.089C5.00078 18.6389 5 18.0566 5 17.2V6.8C5 5.94342 5.00078 5.36113 5.03755 4.91104C5.07337 4.47262 5.1383 4.24842 5.21799 4.09202C5.40974 3.7157 5.7157 3.40974 6.09202 3.21799ZM17.5859 7.00007L15 4.41421V6.40007C15 6.6966 15.0008 6.85885 15.0103 6.97544L15.0114 6.98862L15.0246 6.98977C15.1412 6.99929 15.3035 7.00007 15.6 7.00007H17.5859ZM10.5877 17.3713C10.5203 17.2763 10.5032 17.1545 10.5417 17.0445L12.5749 11.2406C12.6254 11.0965 12.7614 11 12.9141 11H13.3146C13.4311 11 13.5404 11.0565 13.6078 11.1515C13.6752 11.2465 13.6923 11.3683 13.6538 11.4782L11.6206 17.2822C11.5701 17.4263 11.4341 17.5228 11.2814 17.5228H10.8809C10.7644 17.5228 10.6551 17.4663 10.5877 17.3713ZM10.8809 17.1634H11.2814L13.3146 11.3594H13.3146L11.2813 17.1633H10.8809L10.8809 17.1634ZM13.9591 15.2842V15.2842L16.2286 14.3909L16.2285 14.3908L13.9591 15.2842ZM16.6393 14.5941L16.6393 14.5941V14.1875L13.9591 13.1155V13.1154L16.6393 14.1875V14.5941ZM15.2474 14.3908L13.8275 14.9497C13.6901 15.0038 13.5997 15.1365 13.5997 15.2842V15.6662C13.5997 15.7854 13.6589 15.8969 13.7576 15.9638C13.8564 16.0306 13.9819 16.0442 14.0926 15.9999L16.7728 14.9278C16.9092 14.8732 16.9987 14.7411 16.9987 14.5941V14.1875C16.9987 14.0405 16.9092 13.9083 16.7728 13.8538L14.0926 12.7817C13.9819 12.7374 13.8564 12.7509 13.7576 12.8178C13.6589 12.8846 13.5997 12.9961 13.5997 13.1154V13.4974C13.5997 13.6451 13.6901 13.7777 13.8275 13.8318L15.2474 14.3908ZM10.0396 15.2841V15.6661L10.0395 15.666V15.2843L7.77 14.3909L7.77029 14.3908L10.0396 15.2841ZM10.0395 13.4973L10.0396 13.4973V13.1153L7.35941 14.1873V14.1875L10.0395 13.1155V13.4973ZM10.1712 13.8317L8.75126 14.3907L10.1712 14.9496C10.3086 15.0037 10.399 15.1364 10.399 15.2841V15.6661C10.399 15.7853 10.3398 15.8968 10.2411 15.9637C10.1423 16.0305 10.0168 16.044 9.9061 15.9998L7.22593 14.9277C7.08948 14.8731 7 14.741 7 14.594V14.1873C7 14.0404 7.08948 13.9082 7.22593 13.8536L9.9061 12.7816C10.0168 12.7373 10.1423 12.7508 10.2411 12.8177C10.3398 12.8845 10.399 12.996 10.399 13.1153V13.4973C10.399 13.645 10.3086 13.7776 10.1712 13.8317Z" fill="#202225"/>
</svg>
