<svg width="68" height="68" viewBox="0 0 68 68" fill="none" xmlns="http://www.w3.org/2000/svg">
<path d="M52.4173 14.1667C52.4173 13.3843 51.7831 12.75 51.0007 12.75C50.2182 12.75 49.584 13.3843 49.584 14.1667V17.429L51.2385 19.9108C51.6726 20.5618 52.5522 20.7377 53.2031 20.3038C53.8541 19.8697 54.0301 18.9901 53.5961 18.3392L52.4173 16.571V14.1667Z" fill="#175CD3"/>
<path fill-rule="evenodd" clip-rule="evenodd" d="M51 25.5C55.6944 25.5 59.5 21.6944 59.5 17C59.5 12.3056 55.6944 8.5 51 8.5C46.3056 8.5 42.5 12.3056 42.5 17C42.5 21.6944 46.3056 25.5 51 25.5ZM51 22.6667C54.1296 22.6667 56.6667 20.1296 56.6667 17C56.6667 13.8704 54.1296 11.3333 51 11.3333C47.8704 11.3333 45.3333 13.8704 45.3333 17C45.3333 20.1296 47.8704 22.6667 51 22.6667Z" fill="#175CD3"/>
<path fill-rule="evenodd" clip-rule="evenodd" d="M25.6361 21.3991C23.5507 19.3125 20.1682 19.3113 18.0812 21.3965L17.0837 22.3931C15.1865 21.854 13.0639 22.3365 11.57 23.8404C9.36557 26.0598 9.36557 29.6616 11.57 31.881L12.75 33.069V48.1667H8.5V51H12.8216C11.9032 51.9001 11.3333 53.1544 11.3333 54.5417C11.3333 57.2801 13.5532 59.5 16.2917 59.5C19.0301 59.5 21.25 57.2801 21.25 54.5417C21.25 53.1544 20.6802 51.9001 19.7618 51H48.2382C47.3198 51.9001 46.75 53.1544 46.75 54.5417C46.75 57.2801 48.9699 59.5 51.7083 59.5C54.4467 59.5 56.6667 57.2801 56.6667 54.5417C56.6667 53.1544 56.0969 51.9001 55.1785 51H59.5V48.1667H53.8333V43.9163H53.9271C57.005 43.9163 59.5 41.4004 59.5 38.2968C59.5 35.1933 57.005 32.6774 53.9271 32.6774H28.4892C28.3737 32.6774 28.2628 32.6311 28.181 32.5488L27.662 32.0263L28.1839 31.5049C30.271 29.4195 30.2722 26.0374 28.1864 23.9506L25.6361 21.3991ZM51 48.1667V43.9163H24.1856C23.7622 43.9163 23.3562 43.7469 23.0565 43.4452L15.5833 35.9215V48.1667H51ZM25.6653 30.0161L26.1813 29.5006C27.1613 28.5214 27.1619 26.9334 26.1826 25.9537L23.6323 23.4021C22.6528 22.422 21.064 22.4215 20.0838 23.4008L19.5873 23.8969L25.6653 30.0161ZM53.9271 35.5108H28.4892C27.6154 35.5108 26.7821 35.1609 26.1709 34.5456L17.5209 25.8372C16.4295 24.7383 14.6716 24.7383 13.5802 25.8372C12.4733 26.9516 12.4733 28.7699 13.5802 29.8843L24.7037 41.083H53.9271C55.418 41.083 56.6667 39.8578 56.6667 38.2968C56.6667 36.7358 55.4179 35.5108 53.9271 35.5108ZM18.4167 54.5417C18.4167 55.7153 17.4652 56.6667 16.2917 56.6667C15.1181 56.6667 14.1667 55.7153 14.1667 54.5417C14.1667 53.3681 15.1181 52.4167 16.2917 52.4167C17.4652 52.4167 18.4167 53.3681 18.4167 54.5417ZM51.7083 56.6667C52.8819 56.6667 53.8333 55.7153 53.8333 54.5417C53.8333 53.3681 52.8819 52.4167 51.7083 52.4167C50.5348 52.4167 49.5833 53.3681 49.5833 54.5417C49.5833 55.7153 50.5348 56.6667 51.7083 56.6667Z" fill="#175CD3"/>
</svg>
