<svg width="68" height="68" viewBox="0 0 68 68" fill="none" xmlns="http://www.w3.org/2000/svg">
<path fill-rule="evenodd" clip-rule="evenodd" d="M45.3333 12.75C44.5509 12.75 43.9167 12.1157 43.9167 11.3333V8.5H41.0833V11.3333C41.0833 13.1838 42.266 14.7581 43.9167 15.3415V17H42.5C41.7176 17 41.0833 17.6342 41.0833 18.4167V26.9167C41.0833 27.6991 41.7176 28.3333 42.5 28.3333H48.1667C48.9491 28.3333 49.5833 27.6991 49.5833 26.9167V18.4167C49.5833 17.6342 48.9491 17 48.1667 17H46.75V15.5833H53.8333V32.6774H28.4892C28.3737 32.6774 28.2628 32.6311 28.181 32.5488L27.662 32.0263L28.1839 31.5048C30.271 29.4195 30.2722 26.0373 28.1864 23.9506L25.6361 21.399C23.5507 19.3124 20.1682 19.3113 18.0812 21.3965L17.0837 22.3931C15.1865 21.8539 13.0639 22.3364 11.57 23.8404C9.36557 26.0597 9.36557 29.6616 11.57 31.8809L12.75 33.069V48.1667H8.5V51H12.8216C11.9032 51.9 11.3333 53.1543 11.3333 54.5417C11.3333 57.2801 13.5532 59.5 16.2917 59.5C19.0301 59.5 21.25 57.2801 21.25 54.5417C21.25 53.1543 20.6802 51.9 19.7618 51H48.2382C47.3198 51.9 46.75 53.1543 46.75 54.5417C46.75 57.2801 48.9699 59.5 51.7083 59.5C54.4467 59.5 56.6667 57.2801 56.6667 54.5417C56.6667 53.1543 56.0969 51.9 55.1785 51H59.5V48.1667H53.8333V43.9162H53.9271C57.005 43.9162 59.5 41.4004 59.5 38.2968C59.5 36.1974 58.3582 34.3668 56.6667 33.402V15.5833C56.6667 14.0185 55.3982 12.75 53.8333 12.75H45.3333ZM19.5873 23.8969L25.6653 30.016L26.1813 29.5005C27.1613 28.5213 27.1619 26.9334 26.1826 25.9536L23.6323 23.4021C22.6528 22.422 21.064 22.4214 20.0838 23.4008L19.5873 23.8969ZM23.0565 43.4452C23.3562 43.7468 23.7622 43.9162 24.1856 43.9162H51V48.1667H15.5833V35.9214L23.0565 43.4452ZM26.1709 34.5456C26.7821 35.1608 27.6154 35.5107 28.4892 35.5107H53.9271C55.4179 35.5107 56.6667 36.7357 56.6667 38.2968C56.6667 39.8578 55.418 41.0829 53.9271 41.0829H24.7037L13.5802 29.8843C12.4733 28.7698 12.4733 26.9515 13.5802 25.8372C14.6716 24.7383 16.4295 24.7383 17.5209 25.8372L26.1709 34.5456ZM18.4167 54.5417C18.4167 55.7152 17.4652 56.6667 16.2917 56.6667C15.1181 56.6667 14.1667 55.7152 14.1667 54.5417C14.1667 53.3681 15.1181 52.4167 16.2917 52.4167C17.4652 52.4167 18.4167 53.3681 18.4167 54.5417ZM51.7083 56.6667C52.8819 56.6667 53.8333 55.7152 53.8333 54.5417C53.8333 53.3681 52.8819 52.4167 51.7083 52.4167C50.5348 52.4167 49.5833 53.3681 49.5833 54.5417C49.5833 55.7152 50.5348 56.6667 51.7083 56.6667ZM43.9167 25.5V19.8333H46.75V25.5H43.9167Z" fill="#175CD3"/>
</svg>
