<svg width="68" height="68" viewBox="0 0 68 68" fill="none" xmlns="http://www.w3.org/2000/svg">
<path fill-rule="evenodd" clip-rule="evenodd" d="M31.5277 17.9175C32.5565 18.7987 34.0647 18.8283 35.1272 17.989L35.1306 17.9863L35.1384 17.9804C35.1516 17.9702 35.1755 17.9519 35.2098 17.9261C35.2783 17.8744 35.3881 17.7935 35.535 17.6898C35.8296 17.482 36.2697 17.1854 36.8249 16.8522C37.9471 16.1784 39.4793 15.3904 41.1865 14.8615C44.5765 13.8109 48.1697 13.8622 51.0944 17.2535C52.8587 19.2992 53.5953 21.2774 53.7833 23.2191C53.9198 24.6297 53.7746 26.1043 53.4199 27.6691C51.5486 26.305 49.2437 25.5001 46.7506 25.5001C40.4914 25.5001 35.4173 30.5741 35.4173 36.8334C35.4173 43.0075 40.3544 48.0286 46.4961 48.1639C46.0355 49.4756 45.6187 50.3909 45.1823 51.1209C44.6673 51.9824 44.0722 52.6751 43.1544 53.5049C42.6918 53.0664 42.1067 52.3654 41.3343 51.3725C41.2126 51.2161 41.0865 51.0526 40.9563 50.8842L40.9562 50.8839C40.16 49.8527 39.2167 48.6308 38.2549 47.6552C37.2393 46.6251 35.5301 45.142 33.2977 45.1488C31.0755 45.1556 29.3618 46.615 28.3251 47.6523C27.3491 48.6288 26.3923 49.8504 25.5847 50.8816C25.4533 51.0494 25.3258 51.2121 25.203 51.368C24.4145 52.3671 23.8185 53.0711 23.3473 53.5093C21.0646 51.2793 19.8062 48.1142 18.3595 42.2249C18.0324 40.8937 17.5327 39.29 17.0165 37.6339V37.6338C16.8685 37.1589 16.7192 36.6797 16.5722 36.2014C15.891 33.9848 15.2145 31.6509 14.7508 29.3464C13.7772 24.5075 13.961 20.8037 15.7669 18.6112C18.1681 15.6959 20.5548 14.3696 22.8526 14.189C25.1604 14.0074 28.0387 14.9287 31.5277 17.9175ZM49.6004 47.8055C48.1536 52.3874 46.9576 54.0191 44.3245 56.2431C42.6262 57.6775 40.7108 55.1999 38.6952 52.5922C36.949 50.3332 35.1275 47.9766 33.3062 47.9821C31.4549 47.9878 29.604 50.3481 27.8332 52.6063C25.7908 55.211 23.8549 57.6796 22.1475 56.2431C18.7001 53.3421 17.1882 49.3336 15.6079 42.9008C15.3038 41.6624 14.8409 40.177 14.3307 38.5389C12.1903 31.6688 9.21292 22.1118 13.5799 16.8098C18.9881 10.2437 25.7095 9.20262 33.3711 15.7656C33.3711 15.7656 45.3531 6.25825 53.2401 15.403C57.3475 20.1656 57.1768 25.0993 55.7516 29.9456C57.2146 31.8547 58.084 34.2424 58.084 36.8334C58.084 42.1083 54.4803 46.5417 49.6004 47.8055ZM55.2507 36.8334C55.2507 41.5278 51.4451 45.3334 46.7506 45.3334C42.0562 45.3334 38.2507 41.5278 38.2507 36.8334C38.2507 32.139 42.0562 28.3334 46.7506 28.3334C51.4451 28.3334 55.2507 32.139 55.2507 36.8334ZM46.7506 31.1667C45.9682 31.1667 45.334 31.801 45.334 32.5834V35.4167H42.5007C41.7182 35.4167 41.084 36.051 41.084 36.8334C41.084 37.6158 41.7182 38.2501 42.5007 38.2501H45.334V41.0834C45.334 41.8658 45.9682 42.5001 46.7506 42.5001C47.5331 42.5001 48.1673 41.8658 48.1673 41.0834V38.2501H51.0007C51.7831 38.2501 52.4173 37.6158 52.4173 36.8334C52.4173 36.051 51.7831 35.4167 51.0007 35.4167H48.1673V32.5834C48.1673 31.801 47.5331 31.1667 46.7506 31.1667Z" fill="#175CD3"/>
</svg>
