<svg width="68" height="68" viewBox="0 0 68 68" fill="none" xmlns="http://www.w3.org/2000/svg">
<path d="M16.9996 14.1667C18.5645 14.1667 19.833 12.8981 19.833 11.3333C19.833 9.76853 18.5645 8.5 16.9996 8.5C15.9509 8.5 15.0353 9.06978 14.5454 9.91667H14.1663C11.8191 9.91667 9.91629 11.8195 9.91629 14.1667V26.9167H12.7496V14.1667C12.7496 13.3843 13.3839 12.75 14.1663 12.75H14.5454C15.0353 13.5969 15.9509 14.1667 16.9996 14.1667Z" fill="#175CD3"/>
<path fill-rule="evenodd" clip-rule="evenodd" d="M14.3932 26.9167H12.7496H9.91629C9.13389 26.9167 8.49297 27.5523 8.56398 28.3315C8.89334 31.9457 10.4768 35.3487 13.0639 37.9358C14.961 39.8328 17.2968 41.1903 19.833 41.9092V45.3333C19.833 47.1841 21.0159 48.7584 22.6669 49.3416C22.7272 54.9623 27.3023 59.5 32.9371 59.5C38.6096 59.5 43.208 54.9016 43.208 49.2292V43.5625C43.208 40.6284 45.5864 38.25 48.5205 38.25C51.4545 38.25 53.833 40.6284 53.833 43.5625V46.9918C52.1823 47.5752 50.9996 49.1496 50.9996 51C50.9996 53.3473 52.9023 55.25 55.2496 55.25C57.5969 55.25 59.4996 53.3473 59.4996 51C59.4996 49.1496 58.317 47.5752 56.6663 46.9918V43.5625C56.6663 39.0637 53.0192 35.4167 48.5205 35.4167C44.0217 35.4167 40.3746 39.0637 40.3746 43.5625V49.2292C40.3746 53.3368 37.0447 56.6667 32.9371 56.6667C28.8669 56.6667 25.5604 53.3971 25.5005 49.3412C27.1507 48.7576 28.333 47.1835 28.333 45.3333V41.9092C30.8691 41.1903 33.205 39.8328 35.1021 37.9358C37.6892 35.3487 39.2726 31.9457 39.602 28.3315C39.6731 27.5523 39.032 26.9167 38.2496 26.9167V14.1667C38.2496 11.8195 36.3469 9.91667 33.9996 9.91667H33.6205C33.1306 9.06978 32.215 8.5 31.1663 8.5C29.6014 8.5 28.333 9.76853 28.333 11.3333C28.333 12.8981 29.6014 14.1667 31.1663 14.1667C32.215 14.1667 33.1306 13.5969 33.6205 12.75H33.9996C34.782 12.75 35.4163 13.3843 35.4163 14.1667V26.9167H33.7728C32.9904 26.9167 32.3685 27.5554 32.2352 28.3265C31.9462 29.9973 31.1482 31.5516 29.9329 32.7666C28.3815 34.3182 26.2772 35.1899 24.083 35.1899C21.8888 35.1899 19.7845 34.3182 18.233 32.7666C17.0179 31.5516 16.2197 29.9973 15.9307 28.3265C15.7974 27.5554 15.1755 26.9167 14.3932 26.9167ZM34.822 29.75H36.5142C35.9848 32.0728 34.8101 34.2209 33.0986 35.9323C30.7076 38.3234 27.4645 39.6667 24.083 39.6667C20.7015 39.6667 17.4585 38.3234 15.0674 35.9323C13.3559 34.2209 12.1812 32.0728 11.6517 29.75H13.344C13.8408 31.6329 14.8287 33.3693 16.2295 34.7701C18.3124 36.853 21.1374 38.0232 24.083 38.0232C27.0286 38.0232 29.8536 36.853 31.9365 34.7701C33.3373 33.3693 34.3252 31.6329 34.822 29.75ZM55.2496 49.5833C56.032 49.5833 56.6663 50.2176 56.6663 51C56.6663 51.7824 56.032 52.4167 55.2496 52.4167C54.4672 52.4167 53.833 51.7824 53.833 51C53.833 50.2176 54.4672 49.5833 55.2496 49.5833ZM25.4996 42.5V45.3333C25.4996 46.1158 24.8654 46.75 24.083 46.75C23.3005 46.75 22.6663 46.1158 22.6663 45.3333V42.5H25.4996Z" fill="#175CD3"/>
</svg>
