<?xml version="1.0" encoding="utf-8"?>
<!-- Svg Vector Icons : http://www.onlinewebfonts.com/icon -->
<!DOCTYPE svg PUBLIC "-//W3C//DTD SVG 1.1//EN" "http://www.w3.org/Graphics/SVG/1.1/DTD/svg11.dtd">
<svg version="1.1" xmlns="http://www.w3.org/2000/svg" xmlns:xlink="http://www.w3.org/1999/xlink" x="0px" y="0px" viewBox="0 0 256 256" enable-background="new 0 0 256 256" xml:space="preserve">
<metadata> Svg Vector Icons : http://www.onlinewebfonts.com/icon </metadata>
<g><g><g><path fill="#000000" d="M10,119.3c0,46.7,0.1,84.9,0.4,84.9c0.2,0,18.5,3.6,40.8,7.9l40.5,7.9l36.4-7.2l36.4-7.2l40.4,7.9c22.2,4.4,40.5,7.9,40.8,7.9c0.2,0,0.4-36.5,0.4-84.9c0-46.7-0.1-84.9-0.3-84.9c-0.2,0-18.6-3.6-40.8-7.9L164.4,36l-36.5,7.1l-36.5,7.2l-40.1-7.9c-22-4.4-40.4-7.9-40.7-7.9C10.1,34.4,10,51.7,10,119.3z M81.4,65.7l1,0.2v67.7v67.7l-1.5-0.3c-0.8-0.2-13.3-2.7-27.6-5.5l-26.1-5.2L27,122.5l-0.1-67.7l26.7,5.3C68.3,63.1,80.8,65.6,81.4,65.7z M156.4,190.1c-0.2,0.1-12.8,2.7-28.1,5.5c-15.2,2.9-28,5.4-28.3,5.5c-0.5,0.2-0.6-13.4-0.5-67.6l0.1-67.8l28.4-5.4l28.4-5.5l0.1,67.5C156.6,159.4,156.5,189.9,156.4,190.1z M202.8,60.5l26.1,5.2l0.1,67.7l0.1,67.7l-26.7-5.3c-14.7-3-27.2-5.5-27.7-5.6l-1.1-0.2v-67.7V54.7l1.6,0.3C176,55.2,188.4,57.7,202.8,60.5z"/></g></g></g>
</svg>