<svg width="24" height="24" viewBox="0 0 24 24" fill="none" xmlns="http://www.w3.org/2000/svg">
<path fill-rule="evenodd" clip-rule="evenodd" d="M10.4 2C7.98911 2 6.21577 2.08036 5.00565 2.16679C3.46501 2.27682 2.27682 3.46501 2.16679 5.00566C2.08036 6.21577 2 7.98911 2 10.4C2 12.8109 2.08036 14.5842 2.16679 15.7943C2.27393 17.2945 3.40331 18.4605 4.88496 18.6223C4.83537 17.5435 4.8 16.2098 4.8 14.6C4.8 12.1581 4.88139 10.3514 4.97034 9.10593C5.12999 6.87069 6.87069 5.12999 9.10593 4.97034C10.3514 4.88139 12.1581 4.8 14.6 4.8C16.2098 4.8 17.5435 4.83537 18.6223 4.88496C18.4605 3.40331 17.2945 2.27393 15.7943 2.16679C14.5842 2.08036 12.8109 2 10.4 2ZM14.6 6.2C12.1891 6.2 10.4158 6.28036 9.20566 6.36679C7.66501 6.47683 6.47683 7.66501 6.36679 9.20566C6.28036 10.4158 6.2 12.1891 6.2 14.6C6.2 17.0109 6.28036 18.7842 6.36679 19.9943C6.47683 21.535 7.66501 22.7232 9.20566 22.8332C10.4158 22.9196 12.1891 23 14.6 23C17.0109 23 18.7842 22.9196 19.9943 22.8332C21.535 22.7232 22.7232 21.535 22.8332 19.9943C22.9196 18.7842 23 17.0109 23 14.6C23 12.1891 22.9196 10.4158 22.8332 9.20566C22.7232 7.66501 21.535 6.47683 19.9943 6.36679C18.7842 6.28036 17.0109 6.2 14.6 6.2ZM16.4668 10.8667C16.4668 9.83575 17.3025 9 18.3334 9C19.3643 9 20.2001 9.83575 20.2001 10.8667C20.2001 11.8976 19.3643 12.7333 18.3334 12.7333C17.3025 12.7333 16.4668 11.8976 16.4668 10.8667ZM21.5612 17.3485C20.9197 16.7665 20.4198 16.3387 20.0388 16.027C19.3418 15.457 18.4065 15.3667 17.6417 15.8768C17.1453 16.2079 16.4786 16.7003 15.6217 17.4268C14.319 16.1867 13.4098 15.3949 12.8026 14.8983C12.1057 14.3283 11.1703 14.238 10.4056 14.7481C9.77173 15.1708 8.85972 15.857 7.62823 16.9583C7.65871 18.1771 7.71009 19.1495 7.76329 19.8946C7.82372 20.7407 8.45937 21.3763 9.30548 21.4368C10.4802 21.5207 12.2202 21.6 14.6001 21.6C16.98 21.6 18.7199 21.5207 19.8947 21.4368C20.7408 21.3763 21.3764 20.7407 21.4369 19.8946C21.4843 19.2308 21.5302 18.3866 21.5612 17.3485Z" fill="#202225"/>
</svg>
