<svg width="24" height="24" viewBox="0 0 24 24" fill="none" xmlns="http://www.w3.org/2000/svg">
<path d="M4 6.8C4 5.11984 4 4.27976 4.32698 3.63803C4.6146 3.07354 5.07354 2.6146 5.63803 2.32698C6.27976 2 7.11984 2 8.8 2H15.2C16.8802 2 17.7202 2 18.362 2.32698C18.9265 2.6146 19.3854 3.07354 19.673 3.63803C20 4.27976 20 5.11984 20 6.8V17.2C20 18.8802 20 19.7202 19.673 20.362C19.3854 20.9265 18.9265 21.3854 18.362 21.673C17.7202 22 16.8802 22 15.2 22H8.8C7.11984 22 6.27976 22 5.63803 21.673C5.07354 21.3854 4.6146 20.9265 4.32698 20.362C4 19.7202 4 18.8802 4 17.2V6.8Z" stroke="#202225" stroke-width="2" stroke-linecap="round" stroke-linejoin="round"/>
<path d="M12 11.7647C13.3807 11.7647 14.5 10.6981 14.5 9.38235C14.5 8.06662 13.3807 7 12 7C10.6193 7 9.5 8.06662 9.5 9.38235C9.5 10.6981 10.6193 11.7647 12 11.7647Z" stroke="#202225" stroke-width="1.5" stroke-linecap="round" stroke-linejoin="round"/>
<path d="M12 14C10.4827 14 9.13342 14.7653 8.27438 15.953C8.08949 16.2086 7.99705 16.3364 8.00007 16.5091C8.00241 16.6426 8.08263 16.8109 8.18314 16.8933C8.31324 17 8.49353 17 8.85411 17H15.1459C15.5065 17 15.6868 17 15.8169 16.8933C15.9174 16.8109 15.9976 16.6426 15.9999 16.5091C16.003 16.3364 15.9105 16.2086 15.7256 15.953C14.8666 14.7653 13.5173 14 12 14Z" stroke="#202225" stroke-width="1.5" stroke-linecap="round" stroke-linejoin="round"/>
</svg>
